<?xml version="1.0" encoding="UTF-8" standalone="no"?>
<svg
   xmlns:dc="http://purl.org/dc/elements/1.1/"
   xmlns:cc="http://creativecommons.org/ns#"
   xmlns:rdf="http://www.w3.org/1999/02/22-rdf-syntax-ns#"
   xmlns:svg="http://www.w3.org/2000/svg"
   xmlns="http://www.w3.org/2000/svg"
   xmlns:sodipodi="http://sodipodi.sourceforge.net/DTD/sodipodi-0.dtd"
   xmlns:inkscape="http://www.inkscape.org/namespaces/inkscape"
   width="400"
   height="32"
   viewBox="0 0 400 32"
   id="svg3617"
   version="1.1"
   inkscape:version="0.91 r13725"
   sodipodi:docname="man-on-cloud-without-man.svg">
  <metadata
     id="metadata3671">
    <rdf:RDF>
      <cc:Work
         rdf:about="">
        <dc:format>image/svg+xml</dc:format>
        <dc:type
           rdf:resource="http://purl.org/dc/dcmitype/StillImage" />
        <dc:title></dc:title>
      </cc:Work>
    </rdf:RDF>
  </metadata>
  <defs
     id="defs3669" />
  <sodipodi:namedview
     pagecolor="#ffffff"
     bordercolor="#666666"
     borderopacity="1"
     objecttolerance="10"
     gridtolerance="10"
     guidetolerance="10"
     inkscape:pageopacity="0"
     inkscape:pageshadow="2"
     inkscape:window-width="1024"
     inkscape:window-height="614"
     id="namedview3667"
     showgrid="false"
     inkscape:zoom="0.23149606"
     inkscape:cx="850.64861"
     inkscape:cy="365"
     inkscape:window-x="0"
     inkscape:window-y="0"
     inkscape:window-maximized="0"
     inkscape:current-layer="svg3617" />
  <g
     id="g3619"
     transform="matrix(0.31513433,0,0,0.04385919,0,-0.39011)"
     style="fill:#ffffff;fill-rule:evenodd">
    <g
       transform="translate(140,75)"
       id="g3621">
      <path
         d="m 301.26,134.33 c 0,41.605 -31.398,75.33 -70.13,75.33 C 192.4,209.66 161,175.932 161,134.33 161,92.725 192.398,59 231.13,59 c 38.731,0 70.13,33.728 70.13,75.33"
         id="path3623"
         inkscape:connector-curvature="0" />
      <path
         d="M 658,187 C 658,290.28 573.61,374 469.5,374 365.4,374 281,290.28 281,187 281,83.72 365.39,0 469.5,0 573.61,0 658,83.72 658,187"
         id="path3625"
         inkscape:connector-curvature="0" />
      <path
         d="M 854,226 C 854,329.28 769.61,413 665.5,413 561.4,413 477,329.28 477,226 477,122.72 561.39,39 665.5,39 769.61,39 854,122.72 854,226"
         id="path3627"
         inkscape:connector-curvature="0" />
      <path
         d="m 156.08,240.83 c 0,46.3 -34.941,83.83 -78.04,83.83 C 34.94,324.66 0,287.127 0,240.83 0,194.53 34.941,157 78.04,157 c 43.1,0 78.04,37.534 78.04,83.83"
         id="path3629"
         inkscape:connector-curvature="0" />
      <path
         d="m 192.23,167 c 0,27.06 -20.422,49 -45.615,49 C 121.425,216 101,194.062 101,167 c 0,-27.06 20.422,-49 45.615,-49 25.19,0 45.615,21.938 45.615,49"
         id="path3631"
         inkscape:connector-curvature="0" />
      <path
         d="m 149.33,354 c 0,38.66 -29.17,70 -65.16,70 -35.989,0 -65.16,-31.34 -65.16,-70 0,-38.66 29.17,-70 65.16,-70 35.989,0 65.16,31.34 65.16,70"
         id="path3633"
         inkscape:connector-curvature="0" />
      <path
         d="m 638.32,186.67 c 0,43.998 -33.2,79.67 -74.16,79.67 -40.959,0 -74.16,-35.668 -74.16,-79.67 0,-43.999 33.2,-79.67 74.16,-79.67 40.958,0 74.16,35.668 74.16,79.67"
         id="path3635"
         inkscape:connector-curvature="0" />
      <path
         d="m 793.23,205 c 0,27.06 -20.422,49 -45.615,49 C 722.425,254 702,232.062 702,205 c 0,-27.06 20.422,-49 45.615,-49 25.19,0 45.615,21.938 45.615,49"
         id="path3637"
         inkscape:connector-curvature="0" />
      <path
         d="m 961.5,279.17 c 0,39.31 -29.661,71.17 -66.25,71.17 -36.589,0 -66.25,-31.862 -66.25,-71.17 0,-39.3 29.661,-71.17 66.25,-71.17 36.588,0 66.25,31.862 66.25,71.17"
         id="path3639"
         inkscape:connector-curvature="0" />
      <path
         d="m 855.85,243.67 c 0,21.907 -16.532,39.667 -36.926,39.667 -20.393,0 -36.925,-17.76 -36.925,-39.667 0,-21.907 16.532,-39.667 36.925,-39.667 20.394,0 36.926,17.76 36.926,39.667"
         id="path3641"
         inkscape:connector-curvature="0" />
      <path
         d="m 81.69,425 829.13,0 0.621,-95.33 42.822,0 -204.8,-112.67 -373.6,-90 -138.4,8.666 -164.46,122 8.689,167.33"
         id="path3643"
         inkscape:connector-curvature="0" />
      <path
         d="m 420.86,237.45 c 0.796,20.417 -13.965,37.661 -32.972,38.516 -19.01,0.855 -35.06,-15 -35.855,-35.419 -0.796,-20.417 13.966,-37.661 32.972,-38.516 19.01,-0.856 35.06,15 35.855,35.419"
         id="path3645"
         inkscape:connector-curvature="0" />
      <path
         d="m 478.59,287.97 c 1.302,33.384 -22.836,61.58 -53.914,62.979 -31.08,1.398 -57.33,-24.531 -58.63,-57.915 -1.301,-33.384 22.837,-61.58 53.915,-62.979 31.08,-1.398 57.33,24.531 58.63,57.915"
         id="path3647"
         inkscape:connector-curvature="0" />
      <path
         d="m 769.93,280.97 c 0.786,20.14 -13.777,37.15 -32.527,37.995 -18.749,0.844 -34.584,-14.8 -35.37,-34.941 -0.785,-20.14 13.777,-37.15 32.527,-37.995 18.749,-0.844 34.585,14.8 35.37,34.941"
         id="path3649"
         inkscape:connector-curvature="0" />
      <path
         d="m 951.75,403 c 0,20.987 -15.838,38 -35.37,38 -19.537,0 -35.37,-17.01 -35.37,-38 0,-20.987 15.838,-38 35.37,-38 19.537,0 35.37,17.01 35.37,38"
         id="path3651"
         inkscape:connector-curvature="0" />
      <path
         d="m 942.19,315.95 c 1.054,27.04 -18.496,49.875 -43.666,51.01 -25.17,1.132 -46.43,-19.869 -47.48,-46.907 -1.054,-27.04 18.496,-49.875 43.666,-51.01 25.17,-1.132 46.43,19.869 47.48,46.907"
         id="path3653"
         inkscape:connector-curvature="0" />
      <path
         d="m 997.23,361 c 0,27.06 -20.422,49 -45.615,49 C 926.425,410 906,388.062 906,361 c 0,-27.06 20.422,-49 45.615,-49 25.19,0 45.615,21.938 45.615,49"
         id="path3655"
         inkscape:connector-curvature="0" />
    </g>
    <g
       id="g3657"
       style="fill-opacity:0.83999999">
      <path
         d="M 124.75,619.61 C 55.85,619.61 0,563.58 0,494.46 0,425.34 55.854,369.31 124.75,369.31 c 7.797,0 15.427,0.718 22.828,2.09 19.07,-44.632 63.25,-75.898 114.72,-75.898 64.18,0 117.04,48.614 123.98,111.14 13.04,-5.443 27.351,-8.448 42.36,-8.448 60.95,0 110.36,49.567 110.36,110.71 0,60.07 -47.69,108.97 -107.16,110.67 l 0,0.046 -307.09,0"
         id="path3659"
         inkscape:connector-curvature="0" />
      <path
         d="m 507.16,729.61 c -92.28,0 -167.09,-75.05 -167.09,-167.63 0,-92.58 74.81,-167.63 167.09,-167.63 10.443,0 20.663,0.961 30.575,2.8 25.536,-59.779 84.72,-101.66 153.66,-101.66 85.958,0 156.76,65.11 166.06,148.86 17.469,-7.291 36.633,-11.316 56.734,-11.316 81.64,0 147.81,66.39 147.81,148.29 0,80.46 -63.875,145.95 -143.53,148.22 l 0,0.061 -411.31,0"
         id="path3661"
         inkscape:connector-curvature="0"
         style="opacity:0.44200003" />
    </g>
    <path
       d="M 670.06,46.03 C 639.587,27.544 600.72,49.295 598.29,87.512 564.88,91.903 539,122.436 539,159.473 c 0,40.05 30.26,72.53 67.58,72.53 l 211.82,0 c 37.33,0 67.59,-32.472 67.59,-72.53 0,-32.38 -19.779,-59.796 -47.08,-69.11 -6.932,-93.67 -121.87,-124.54 -168.86,-44.33"
       transform="matrix(-1,0,0,1,1424.99,0)"
       id="path3663"
       inkscape:connector-curvature="0"
       style="opacity:0.73799995" />
    <path
       d="m 1011.49,395.96 c -36.38,-22.07 -82.79,3.898 -85.69,49.53 -39.89,5.242 -70.79,41.698 -70.79,85.92 0,47.822 36.13,86.59 80.69,86.59 l 252.91,0 c 44.567,0 80.69,-38.771 80.69,-86.59 0,-38.66 -23.615,-71.39 -56.21,-82.52 -8.276,-111.84 -145.51,-148.69 -201.61,-52.928"
       id="path3665"
       inkscape:connector-curvature="0"
       style="opacity:0.353" />
  </g>
</svg>
