<?xml version="1.0" encoding="UTF-8" standalone="no"?>
<svg
   xmlns:sketch="http://www.bohemiancoding.com/sketch/ns"
   xmlns:dc="http://purl.org/dc/elements/1.1/"
   xmlns:cc="http://creativecommons.org/ns#"
   xmlns:rdf="http://www.w3.org/1999/02/22-rdf-syntax-ns#"
   xmlns:svg="http://www.w3.org/2000/svg"
   xmlns="http://www.w3.org/2000/svg"
   xmlns:sodipodi="http://sodipodi.sourceforge.net/DTD/sodipodi-0.dtd"
   xmlns:inkscape="http://www.inkscape.org/namespaces/inkscape"
   width="50"
   height="50"
   viewBox="0 0 50 50"
   version="1.1"
   id="svg4213"
   inkscape:version="0.91 r13725"
   sodipodi:docname="rocket.svg">
  <metadata
     id="metadata4237">
    <rdf:RDF>
      <cc:Work
         rdf:about="">
        <dc:format>image/svg+xml</dc:format>
        <dc:type
           rdf:resource="http://purl.org/dc/dcmitype/StillImage" />
        <dc:title>A4</dc:title>
      </cc:Work>
    </rdf:RDF>
  </metadata>
  <sodipodi:namedview
     pagecolor="#ffffff"
     bordercolor="#666666"
     borderopacity="1"
     objecttolerance="10"
     gridtolerance="10"
     guidetolerance="10"
     inkscape:pageopacity="0"
     inkscape:pageshadow="2"
     inkscape:window-width="1402"
     inkscape:window-height="715"
     id="namedview4235"
     showgrid="false"
     inkscape:zoom="1.7292683"
     inkscape:cx="205"
     inkscape:cy="205"
     inkscape:window-x="0"
     inkscape:window-y="0"
     inkscape:window-maximized="0"
     inkscape:current-layer="svg4213" />
  <!-- Generator: Sketch 3.3.3 (12081) - http://www.bohemiancoding.com/sketch -->
  <title
     id="title4215">A4</title>
  <desc
     id="desc4217">Created with Sketch.</desc>
  <defs
     id="defs4219" />
  <g
     id="Page-1"
     sketch:type="MSPage"
     transform="matrix(0.125,0,0,0.125,3.5,-5.625)"
     style="fill:none;fill-rule:evenodd;stroke:none;stroke-width:1">
    <g
       id="A4"
       sketch:type="MSArtboardGroup">
      <g
         id="Path-Copy-2-+-Oval-7-+-Group"
         sketch:type="MSLayerGroup"
         transform="translate(4,-19)">
        <circle
           id="Path-Copy-2"
           sketch:type="MSShapeGroup"
           cx="200"
           cy="224"
           r="200"
           style="fill:#eaeaea" />
        <path
           d="m 44.823311,350.18531 c 8.649318,10.6236 18.367776,20.34206 28.991378,28.99138 L 199.83809,253.15328 170.84672,224.1619 44.823311,350.18531 Z"
           id="Oval-7"
           sketch:type="MSShapeGroup"
           inkscape:connector-curvature="0"
           style="fill:#ffffff" />
        <g
           id="Group"
           transform="matrix(0.70710678,0.70710678,-0.70710678,0.70710678,331.80687,0.06213947)"
           sketch:type="MSShapeGroup">
          <path
             d="m 130.18195,260.11078 0,47.67073 -29.76142,-39.1887 0,-43.32404 29.76142,34.84201 z"
             id="Rectangle-1"
             inkscape:connector-curvature="0"
             style="fill:#d55b3c" />
          <path
             d="m 29.761425,260.11078 0,47.67073 L 0,268.59281 0,225.26877 29.761425,260.11078 Z"
             id="Rectangle-1-Copy"
             transform="matrix(-1,0,0,1,29.761424,0)"
             inkscape:connector-curvature="0"
             style="fill:#d55b3c" />
          <ellipse
             id="Oval-2"
             cx="67.827957"
             cy="127.73"
             rx="28.88172"
             ry="34.727779"
             style="fill:#ffffff" />
          <path
             d="M 23.103057,63.334041 C 41.473008,23.036265 64.437914,0.06835937 64.437914,0.06835937 c 0,0 23.136232,26.00789363 40.777926,63.26568163 C 165.42383,190.48828 87.374999,289.99924 87.374999,289.99924 l -43.774412,0 c 0,0 -78.37598,-99.69846 -20.49753,-226.665199 z m 41.805587,93.753379 c 17.918937,0 32.445106,-14.52694 32.445106,-32.44682 0,-17.91988 -14.526169,-32.446811 -32.445106,-32.446811 -17.918937,0 -32.445106,14.526931 -32.445106,32.446811 0,17.91988 14.526169,32.44682 32.445106,32.44682 z"
             id="Triangle-1"
             inkscape:connector-curvature="0"
             style="fill:#ff8160" />
          <path
             d="m 64.908644,157.07111 c 17.970039,0 32.537635,-14.56617 32.537635,-32.53444 0,-17.96828 -14.567596,-32.534448 -32.537635,-32.534448 -17.970039,0 -32.537634,14.566168 -32.537634,32.534448 0,17.96827 14.567595,32.53444 32.537634,32.53444 z m -0.100162,-6.03918 c 14.739471,0 26.688172,-11.94753 26.688172,-26.68555 0,-14.73803 -11.948701,-26.685558 -26.688172,-26.685558 -14.73947,0 -26.688172,11.947528 -26.688172,26.685558 0,14.73802 11.948702,26.68555 26.688172,26.68555 z"
             id="Path-Copy"
             inkscape:connector-curvature="0"
             style="fill:#d55b3c" />
          <path
             d="M 23.307297,63.265682 C 41.677248,22.967905 64.642154,0 64.642154,0 c 0,0 23.136232,26.007894 40.777926,63.265682 0.22221,0.46928 -82.351331,0.523296 -82.112783,0 z"
             id="Triangle-1-Copy"
             inkscape:connector-curvature="0"
             style="fill:#d55b3c" />
          <rect
             id="Rectangle-2"
             x="43"
             y="289"
             width="45"
             height="12"
             style="fill:#d55b3c" />
          <path
             d="M 110.9043,144.96544 C 106.99992,95.613107 64.892925,0 64.892925,0 c 0,0 23.136232,26.007894 40.777925,63.265682 60.20799,127.154238 -17.84084,226.665198 -17.84084,226.665198 0,0 26.81561,-97.67415 23.07429,-144.96544 z"
             id="Triangle-1-Copy-2"
             inkscape:connector-curvature="0"
             style="opacity:0.30089788;fill:#ff9c83" />
        </g>
      </g>
    </g>
  </g>
</svg>
