<?xml version="1.0" encoding="UTF-8" standalone="no"?>
<svg width="1280px" height="1002px" viewBox="0 0 1280 1002" version="1.1" xmlns="http://www.w3.org/2000/svg" xmlns:xlink="http://www.w3.org/1999/xlink" xmlns:sketch="http://www.bohemiancoding.com/sketch/ns">
    <!-- Generator: Sketch 3.3.3 (12081) - http://www.bohemiancoding.com/sketch -->
    <title>Group</title>
    <desc>Created with Sketch.</desc>
    <defs></defs>
    <g id="Page-1" stroke="none" stroke-width="1" fill="none" fill-rule="evenodd" sketch:type="MSPage">
        <g id="Group" sketch:type="MSLayerGroup">
            <rect id="Rectangle-184" fill="#C4EBFF" sketch:type="MSShapeGroup" x="0" y="0" width="1280" height="1002"></rect>
            <path d="M895.09901,213 C881.237209,213 870,201.762791 870,187.90099 C870,174.03919 881.237209,162.80198 895.09901,162.80198 C896.66768,162.80198 898.202739,162.945887 899.691704,163.22122 L899.691704,163.22122 C903.527393,154.270394 912.41757,148 922.772277,148 C935.683936,148 946.318473,157.749522 947.715675,170.288353 L947.715675,170.288353 C950.339738,169.196736 953.2183,168.594059 956.237624,168.594059 C968.499986,168.594059 978.440594,178.534668 978.440594,190.79703 C978.440594,202.844141 968.845913,212.650294 956.881188,212.990852 L956.881188,213 L895.09901,213 Z" id="cloud-8" fill="#FFFFFF" sketch:type="MSShapeGroup"></path>
            <path d="M124.59901,245.5 C110.737209,245.5 99.5,234.262791 99.5,220.40099 C99.5,206.53919 110.737209,195.30198 124.59901,195.30198 C126.16768,195.30198 127.702739,195.445887 129.191704,195.72122 L129.191704,195.72122 C133.027393,186.770394 141.91757,180.5 152.272277,180.5 C165.183936,180.5 175.818473,190.249522 177.215675,202.788353 L177.215675,202.788353 C179.839738,201.696736 182.7183,201.094059 185.737624,201.094059 C197.999986,201.094059 207.940594,211.034668 207.940594,223.29703 C207.940594,235.344141 198.345913,245.150294 186.381188,245.490852 L186.381188,245.5 L124.59901,245.5 Z" id="cloud-9" fill="#FFFFFF" sketch:type="MSShapeGroup"></path>
            <path d="M894.09901,213 C880.237209,213 869,201.762791 869,187.90099 C869,174.03919 880.237209,162.80198 894.09901,162.80198 C895.66768,162.80198 897.202739,162.945887 898.691704,163.22122 L898.691704,163.22122 C902.527393,154.270394 911.41757,148 921.772277,148 C934.683936,148 945.318473,157.749522 946.715675,170.288353 L946.715675,170.288353 C949.339738,169.196736 952.2183,168.594059 955.237624,168.594059 C967.499986,168.594059 977.440594,178.534668 977.440594,190.79703 C977.440594,202.844141 967.845913,212.650294 955.881188,212.990852 L955.881188,213 L894.09901,213 Z" id="cloud-8" fill="#FFFFFF" sketch:type="MSShapeGroup"></path>
            <path d="M1125.09901,895.78972 C1111.23721,895.78972 1100,884.552511 1100,870.69071 C1100,856.82891 1111.23721,845.5917 1125.09901,845.5917 C1126.66768,845.5917 1128.20274,845.735608 1129.6917,846.01094 L1129.6917,846.01094 C1133.52739,837.060114 1142.41757,830.78972 1152.77228,830.78972 C1165.68394,830.78972 1176.31847,840.539242 1177.71567,853.078073 L1177.71567,853.078073 C1180.33974,851.986456 1183.2183,851.38378 1186.23762,851.38378 C1198.49999,851.38378 1208.44059,861.324388 1208.44059,873.58675 C1208.44059,885.633861 1198.84591,895.440015 1186.88119,895.780572 L1186.88119,895.78972 L1125.09901,895.78972 Z" id="cloud-9" fill="#FFFFFF" sketch:type="MSShapeGroup" transform="translate(1154.381188, 863.289720) scale(-1, 1) translate(-1154.381188, -863.289720) "></path>
            <path d="M119.538121,811.992203 C118.439393,799.560311 100.220405,795.464145 92.7737861,806.109035 C87.9436416,803.65562 81.7836416,806.54236 81.3976879,811.614293 C76.1021098,812.197011 72,816.249188 72,821.164587 C72,826.480176 76.7961272,830.78972 82.7122832,830.78972 L116.287399,830.78972 C122.203873,830.78972 127,826.480176 127,821.164587 C127,816.867326 123.865,813.228765 119.538121,811.992203" id="Fill-49" fill="#FFFFFF" sketch:type="MSShapeGroup"></path>
        </g>
    </g>
</svg>